<svg xmlns="http://www.w3.org/2000/svg" width="280" height="281" fill="none">
  <rect width="280" height="280" y=".5" fill="#FFFAEE" rx="8"/>
  <mask id="a" width="280" height="281" x="0" y="0" maskUnits="userSpaceOnUse" style="mask-type:alpha">
    <path fill="#D9D9D9" d="M139.842 280.184c77.233 0 139.842-62.609 139.842-139.842S217.075.5 139.842.5 0 63.11 0 140.342c0 77.233 62.61 139.842 139.842 139.842Z"/>
  </mask>
  <g mask="url(#a)">
    <path fill="#8A76E8" d="M240.291 198.943H39.421v1.522h200.87v-1.522Z"/>
    <path fill="#AD6247" d="m48 181.113-3.959 5.25 3.386 8.55 1.55-.803s-.03-4.763 0-5.365c.028-.603 3.213-3.644 3.213-3.644L48 181.113Z"/>
    <path fill="#8A76E8" d="m45.419 184.556-2.41 2.41a1.145 1.145 0 0 0-.23 1.233c.976 2.238 4.275 8.608 4.992 9.87.718 1.263 2.353 1.349 2.18-.889-.171-2.238-1.003-5.365-1.003-5.365s-.373 1.147-1.492-.23c-1.12-1.377-1.32-2.123-1.263-3.73.058-1.607-.774-3.299-.774-3.299Z"/>
    <path fill="#271A38" d="M68.601 124.792s5.222 23.699 5.997 27.916c.775 4.218 1.234 7.231-1.836 10.989l-20.429 25.048-4.705-7.144 16.584-22.064-4.247-35.692 8.636.947Z"/>
    <path fill="#AD6247" d="M61.4 187.999c1.52 12.079 2.065 12.193 1.262 9.64.086.287 4.275 2.123 4.275 2.123l-.66-11.046-4.878-.717Z"/>
    <path fill="#8A76E8" d="M62.318 194.798c-.947 3.357-2.066 5.825 2.726 5.079 1.807-.258 5.508.143 1.549-5.652-.144 1.033.344 2.553-1.951 2.811-2.295.259-2.324-2.238-2.324-2.238Z"/>
    <path fill="#AD6247" d="M71.376 104.353a2.582 2.582 0 0 0-4.473 2.582l10.83 18.757a2.583 2.583 0 1 0 4.473-2.582l-10.83-18.757Z"/>
    <path fill="url(#b)" d="m66.392 132.251 1.635 56.781-8.177.574s-8.005-49.981-8.578-54.887c-.574-4.906.028-10.128 7.144-10.846 7.804-.832 7.976 8.378 7.976 8.378Z"/>
    <path fill="#FF7B6D" d="M70.41 116.729c1.29-10.415-.976-13.657-.976-13.657H51.932s-1.607.316-1.291 5.136c.258 3.701 1.147 11.821 1.779 15.952-.201.775-.976 4.132-1.005 4.906-.287 4.419 5.394 8.091 16.268 7.403 5.25-.344 6.858-4.878 6.858-10.788 0-3.357-1.664-6.714-4.132-8.952Z"/>
    <mask id="c" width="25" height="34" x="50" y="103" maskUnits="userSpaceOnUse" style="mask-type:alpha">
      <path fill="#FF7B6D" d="M70.41 116.729c1.29-10.415-.976-13.657-.976-13.657H51.932s-1.607.316-1.291 5.136c.258 3.701 1.147 11.821 1.779 15.952-.201.775-.976 4.132-1.005 4.906-.287 4.419 5.394 8.091 16.268 7.403 5.25-.344 6.858-4.878 6.858-10.788 0-3.357-1.664-6.714-4.132-8.952Z"/>
    </mask>
    <g fill="#F2E93F" mask="url(#c)">
      <path d="m57.613 131.046-.287.23c-.2.2-.344.401-.574.602-.23.201-1.377.66-2.352.373l-.689-.201-.602.344a3.955 3.955 0 0 1-3.013.259 5.197 5.197 0 0 1-.689-.345l-.344-.2-.2.487c-.202.373-.69.603-1.521.689-.832.086-1.492.029-1.951-.23l-.488-.287c-.172.115-.344.173-.402.259l-.401.545c-.23.344-.632.66-1.464.746-.832.086-1.348-.029-1.721-.316s-1.177-1.147-1.177-1.836a2.32 2.32 0 0 1 .03-.459c.028-.115.171-.23.229-.316a2.696 2.696 0 0 1 1.004.058c.287.086.43.229.258.401-.631.632-.344 1.177.258 1.664.13.14.274.265.43.373a.996.996 0 0 0 .947-.057c.151-.082.287-.188.402-.316a2.4 2.4 0 0 0 .947-1.692c.042-.34.11-.675.2-1.005a6.17 6.17 0 0 1-.774-.143c-.2-.057-.23-.23-.086-.402.419.06.826.186 1.205.373.237-.038.478-.047.717-.028.28-.002.559.027.832.086.488.086.373.344-.172.487l-.717.173c0 .086-.057.2-.029.258.029.057.259.574.345.889.086.316.401.402.918.459a1.164 1.164 0 0 0 1.348-.717c.144-.488.23-1.004.344-1.521.018-.155.047-.308.087-.459 0-.086.172-.143.373-.143.2 0 .344 0 .401.057a.316.316 0 0 1 .086.316c-.028.459.23.861.517 1.291.234.306.57.52.947.602.198.045.4.074.602.087.66.028 1.291-.201 1.406-.517.108-.296.175-.604.2-.918.03-.402.03-.803.03-1.176 0-.373.114-.173.286-.201h.46c.057.028.086.086.114.115.029.028.086.401.115.573a2.14 2.14 0 0 1-.115.459c-.028.46.345.804.976 1.091l.315.086c.282.068.58.027.832-.115.157-.119.301-.254.43-.402.358-.424.542-.967.517-1.52-.028-.115-.086-.201-.028-.316a.547.547 0 0 1 .315-.172.994.994 0 0 1 .43.029.428.428 0 0 1 .115.315c.058.545.488 1.004 1.09 1.435.417.251.892.389 1.378.402.774.057 1.348-.115 1.606-.488a1.69 1.69 0 0 0 .115-.23c.201-.717.43-1.406.402-2.094a.458.458 0 0 1 .086-.258c.029-.087.344-.115.43-.087.086.029.201.115.23.201.025.191.034.382.029.574-.03.603.459 1.062 1.52 1.349.291.072.59.11.89.114.688.029 1.377-.229 1.635-.545.082-.132.14-.278.172-.43l.172-1.377a.286.286 0 0 1 .144-.259.75.75 0 0 1 .401-.114.261.261 0 0 1 .259.086c.025.132.034.267.029.401.114.66.63 1.205 1.491 1.665l.316.172c.248.067.511.046.746-.058.413-.14.787-.376 1.09-.688.46-.66.861-1.32.689-1.98 0-.057-.029-.086-.029-.143 0-.058.029-.201.287-.23a.808.808 0 0 1 .631.086.517.517 0 0 1 .058.287 1.349 1.349 0 0 0 .287 1.234 2.7 2.7 0 0 0 1.004.832 1.644 1.644 0 0 0 1.406-.058c.224-.108.413-.277.545-.487.296-.474.455-1.02.459-1.578a3.456 3.456 0 0 1 0-.546l.258-.143c.115 0 .316 0 .344.057a.292.292 0 0 1 .144.23c.029.287 0 .574.029.861.028.287.918.975 2.037 1.004.459.029.717-.029.89-.258.2-.274.364-.573.487-.89.207-.478.389-.966.545-1.463l.086-.201c.086-.143.2-.172.775-.201-.029.144-.029.259-.058.402-.114.631.115 1.205.718 1.693l.459.287c.448.132.929.091 1.348-.115l.144-.086a5.892 5.892 0 0 0 1.549-1.463.663.663 0 0 0-.029-.804.716.716 0 0 1-.114-.315c-.03-.029.086-.086.143-.115h.344a.29.29 0 0 1 .2.143 6.081 6.081 0 0 0 .862 1.377c.258.287.803.373 1.52.287l.66-.114a.52.52 0 0 0 .287-.459c.201-.517.345-1.033.517-1.55.172-.516.028-.201.373-.258.344-.057.488.057.43.201-.143.602.344 1.09.832 1.549a.453.453 0 0 0 .23.172c.446.164.938.154 1.377-.028l.602-.373c.718-.603.89-1.205.574-1.779a1.865 1.865 0 0 1-.114-.373.26.26 0 0 1 .114-.201l.316-.115a.434.434 0 0 1 .373.086c.057.058.057.115.086.172.029.058.143.459.2.718.128.333.373.609.69.774.286.173.544.173 1.032.058.488-.115.861-.316.89-.574.028-.258.028-.746.028-1.119s.03-.402.03-.631a.173.173 0 0 1 .056-.144l.316-.114.316.057c.096.187.155.392.172.602.029.287-.029.546 0 .832.015.137.044.272.086.402.057.201.459.23.947.115a1.24 1.24 0 0 0 .66-.402c.287-.344.43-.688.315-1.004a2.879 2.879 0 0 0-.344-.66c-.057-.086-.144-.143-.115-.229.029-.086.115-.115.201-.144a.637.637 0 0 1 .459 0c.086.029.172.086.172.144.154.352.279.717.373 1.09.058.315-.143.631-.488.947-.344.315-1.004.631-1.922.631a2.981 2.981 0 0 0-1.406.316l-.401.172a2.7 2.7 0 0 1-1.78.028l-.544-.258-.345.316a2.924 2.924 0 0 1-.373.459c-.401.401-1.061.602-1.922.688-.86.086-1.291-.086-1.55-.373a3.743 3.743 0 0 1-.344-.459c-.143.115-.23.172-.258.23a.627.627 0 0 0-.143.229c-.144.259-.23.517-.89.632a4.11 4.11 0 0 1-2.123.028l-.574-.258-.516-.287-.43.373-.747.66c-.17.15-.352.284-.545.402a2.787 2.787 0 0 1-2.324.172 1.837 1.837 0 0 1-.832-.545l-.401-.373-.201.545a4.087 4.087 0 0 1-.43.631c-.288.316-.775.459-1.435.43l-.861-.057-.717-.115c-.545-.086-.746-.057-1.148.201l-.574.373c-.803.488-1.893.574-2.61.201a6.663 6.663 0 0 1-.861-.631l-.287-.287-.373.43c-.291.357-.653.65-1.062.861-.2.118-.411.214-.631.287-.45.174-.944.194-1.406.057a5.235 5.235 0 0 1-.803-.401 4.404 4.404 0 0 1-.603-.402c-.287.029-.2.115-.23.172l-.143.172c-.373.603-2.41 1.119-3.586.804l-.804-.287-.602-.201-.144.201a.833.833 0 0 1-.086.287c-.487.832-2.41 1.291-3.787.86a3.278 3.278 0 0 1-.832-.459 4.296 4.296 0 0 1-.488-.344ZM45.161 136.699c.976-.402 1.291-.861 1.349-1.349l.086-1.061a.346.346 0 0 1 .373-.287c.287.028.373.114.43.229.138.261.235.542.287.832a1.258 1.258 0 0 0 .574.832l.86.517a1.7 1.7 0 0 0 1.32.086c.603-.144.919-.373 1.005-.631a9.82 9.82 0 0 0 .2-.976 7.83 7.83 0 0 0 .144-.803l.057-.086c.03-.086.173-.144.345-.173.172-.028.344.029.401.115.058.086.058.144.115.201.138.351.31.688.517 1.004.258.402.688.746 1.606.976l.316-.258c.66-.66 1.09-1.349 1.004-2.066v-.115a.573.573 0 0 1 .488-.143c.316.057.516.143.545.286a.407.407 0 0 1-.057.173c-.029.545.43.975 1.205 1.319.297.115.604.201.918.259a.855.855 0 0 0 .688-.144 1.57 1.57 0 0 0 .345-.545c.093-.25.16-.51.2-.775.058-.172.087-.344.173-.545.086-.201.143-.143.344-.143.2 0 .316.028.373.115l.086.258c.144.631.832 1.176 1.636 1.664l.373.143c.343.091.708.061 1.032-.086.203-.103.387-.238.546-.401.3-.343.471-.779.487-1.234a2.965 2.965 0 0 1 .029-.488.352.352 0 0 1 .258-.115.433.433 0 0 1 .402.058.37.37 0 0 1 .086.229c.057.264.086.534.086.804 0 .401.316.717.832 1.004.517.287 2.439.143 2.754-.258l.201-.316.603-1.75a.113.113 0 0 1 .028-.086c.086-.029.201-.115.287-.115a1.06 1.06 0 0 1 .43.086.17.17 0 0 1 .115.172c-.057.66.804 1.148 1.406 1.693.603.545.632.344 1.234.287.603-.058 1.148-.316 1.234-.603.086-.287.029-.172.029-.258-.115-.602.143-1.176.23-1.779 0-.057.056-.115.143-.172l.258-.057.23.057c.05.081.088.167.114.258a3.935 3.935 0 0 1-.057 1.636.888.888 0 0 0-.058.459c.058.287.746.43 1.377.287.295-.049.566-.189.775-.402a3.44 3.44 0 0 0 .66-.861c.192-.474.346-.964.46-1.463.028-.057 0-.115.028-.172.028-.057.143-.086.2-.115l.345.058a.454.454 0 0 1 .143.258l.23.832c.086.459.574.803 1.291 1.09a1.78 1.78 0 0 0 1.062.201.692.692 0 0 0 .66-.459l.43-1.406c.015-.108.044-.215.086-.316.029-.114.115-.172.373-.2.258-.029.545.057.574.2.029.144-.086.172-.086.259 0 .086-.058.315.057.459.323.401.678.775 1.062 1.119.373.344 1.119.344 1.664-.029a.944.944 0 0 0 .488-.66 7.78 7.78 0 0 0 .114-1.176c.029-.115.029-.259.058-.402.028-.143.2-.143.401-.115.201.029.23.029.259.086a.462.462 0 0 1 .086.259c0 .373.23.717.688 1.004l1.033.631a1.413 1.413 0 0 0 1.176-.029c.345-.143.546-.315.603-.545.057-.229.2-.746.287-1.119.086-.373 0-.229.029-.315.028-.087.172-.115.258-.144l.459.057c.079.065.13.157.143.259 0 .258-.028.516-.028.774a1.033 1.033 0 0 0 .401.775.808.808 0 0 0 .746.057c.632-.229 1.005-.516 1.177-.832a1.72 1.72 0 0 0 .258-1.09.95.95 0 0 1 0-.402c0-.114.2-.172.43-.172.23 0 .402.029.402.144 0 .114-.029.487-.029.717-.042.17-.071.342-.086.516-.029.345.172.66.574.919l.545.229c.373.111.77.121 1.148.029a2.038 2.038 0 0 0 1.004-.488 1.116 1.116 0 0 0 .373-.947c-.029-.401-.086-.774-.086-1.176a.433.433 0 0 1 .057-.316.698.698 0 0 1 .316-.086c.115-.029.316 0 .344.058a.396.396 0 0 1 .144.286l.086 1.406c.015.14.054.276.115.402.086.143.373.23.746.23a1.085 1.085 0 0 0 .803-.259 1.966 1.966 0 0 0 .602-1.406c-.028-.286-.086-.573-.114-.832.602-.172.918-.143.918.115a2.842 2.842 0 0 1-.603 1.98 2.652 2.652 0 0 1-.516.459c-.402.287-.89.344-1.55.258l-.86-.115-.689.431c-.89.516-2.553.516-3.27.057l-.66-.459-.546.316-.602.287c-.746.258-1.291.229-1.837-.058l-.258-.143-.459.201a4.366 4.366 0 0 1-.631.315c-.42.175-.887.195-1.32.058a8.22 8.22 0 0 1-1.004-.402l-.746-.373a.543.543 0 0 0-.316.459c-.114.459-.746.689-1.606.861a2.242 2.242 0 0 1-1.406-.086 5.169 5.169 0 0 1-.718-.517 4.853 4.853 0 0 1-.487-.545c-.086.115-.201.201-.201.258 0 .058.086.259.086.373 0 .115-.602.66-1.463.689a4.165 4.165 0 0 1-2.037-.402 6.234 6.234 0 0 1-.89-.631c-.258.029-.23.143-.287.201l-.43.545a3.274 3.274 0 0 1-1.148.689 3.04 3.04 0 0 1-1.893.114l-.632-.143-.946.229c-.947.201-1.636.144-2.238-.2a4.942 4.942 0 0 1-.718-.574l-.401-.345c-.373.316-.718.574-.603.861.115.287-.143.344-.488.459l-1.463.402a3.412 3.412 0 0 1-1.893-.115l-.69-.373-.516-.315a1.604 1.604 0 0 1-.287.315c-.63.603-2.266.746-3.098.258a6.109 6.109 0 0 1-.803-.66c-.144-.086-.201-.229-.46-.286-.258-.058-.2.086-.2.143a.375.375 0 0 0 .086.23c.143.258-.086.459-.574.659a3.123 3.123 0 0 1-1.55.115 4.583 4.583 0 0 1-1.606-.545l-.574-.373c-.344.172-.344.344-.46.488l-.602.717-.286.172a1.518 1.518 0 0 1-1.12.086 3.104 3.104 0 0 1-1.233-.602 1.832 1.832 0 0 0-.574-.402c-.258.058-.143.144-.172.201-.029.057-.029.172-.058.23-.2.573-.918.889-2.18 1.032a2.665 2.665 0 0 1-1.607-.258l-.545-.344-.488-.258c-.137.1-.262.216-.373.344-.344.316-.89.516-1.635.631a3.237 3.237 0 0 1-1.693-.115l-.172-.114c-1.004-.689-1.75-1.406-1.492-2.296.602-.114.86-.114 1.09.086a1.184 1.184 0 0 1 .43 1.062.404.404 0 0 0 .173.545c.427.29.92.468 1.434.517ZM54.429 122.755c-.144.286-.23.487-.345.688a2.697 2.697 0 0 1-1.09.832 3.644 3.644 0 0 1-2.18.316l-.66-.258c-.086.143-.173.229-.23.344a2.132 2.132 0 0 1-.2.344c-.488.746-1.808 1.263-2.985 1.177l-.43-.058-.43.488a2.013 2.013 0 0 1-1.75.574l-1.75-.316-.718-.172c-.04.146-.087.29-.144.43a4.345 4.345 0 0 1-.258.718c-.258.373-.803.631-1.52.688a2.472 2.472 0 0 1-1.062-.057c-.918-.316-1.434-.775-1.406-1.492a1.23 1.23 0 0 1 .201-.459l.2-.115h.288a.317.317 0 0 1 .057.23c-.115.602.46.946.947 1.319.488.373.545.173.976.144a.955.955 0 0 0 .717-.344c.073-.124.122-.26.143-.402a4.044 4.044 0 0 0-.057-1.664c0-.086.029-.201.029-.373l.459.057c.153.101.289.227.401.373.23.344.689.574 1.32.717l1.463.287c.488.058.861-.086 1.033-.43.172-.344.344-.889.172-1.291a2.438 2.438 0 0 1-.258-.631c-.029-.058.029-.115.057-.201a.805.805 0 0 1 .43-.115l.173.172.603 1.062c.063.131.162.24.286.315.23.173.632.173 1.148.029.413-.07.782-.296 1.033-.631.316-.545.43-1.09.23-1.521a1.507 1.507 0 0 0-.173-.373c.02-.098.049-.194.087-.287h.43a.543.543 0 0 1 .402.431 1.55 1.55 0 0 0 .975.774l.603.115a2.319 2.319 0 0 0 1.692-.66 1.176 1.176 0 0 0 .345-.947 7.077 7.077 0 0 0-.172-.746 1.401 1.401 0 0 1-.03-.344c0-.086.087-.201.26-.229a.512.512 0 0 1 .372.057.143.143 0 0 1 .086.143c.144.459.631.746 1.12 1.033.487.287 1.032.23 1.778.115a1.382 1.382 0 0 0 1.033-.516 2.75 2.75 0 0 0 .258-.488c.139-.447.149-.925.029-1.377a.289.289 0 0 1 0-.259c0-.057.143-.172.258-.2a.567.567 0 0 1 .316.028c.057.029.086.115.114.201.115.347.324.654.603.89.31.219.683.33 1.062.315a3.264 3.264 0 0 0 2.41-.832c.401-.43.573-.832.487-1.205a6.36 6.36 0 0 1-.143-.717c0-.058.115-.144.2-.201a.549.549 0 0 1 .431 0c.057.019.086.048.086.086.086.402.517.631.86.889.345.259.747.316 1.35.287.602-.028 1.635-.401 1.807-.86.172-.459.316-1.005-.057-1.378s-.086-.286-.058-.459c.029-.172.144-.172.344-.2a.456.456 0 0 1 .287.028c.201.23.345.488.574.718.205.156.427.291.66.401.12.076.26.116.402.115.404.045.812-.056 1.148-.287.389-.231.691-.584.86-1.004a1.147 1.147 0 0 0-.029-.918l-.114-.373c0-.058.143-.144.258-.201h.316c.08.044.14.115.172.201.172.258.315.516.459.774.143.259 1.664.574 2.984.087.25-.056.475-.198.63-.402.2-.36.3-.766.288-1.177a2.496 2.496 0 0 1 .143-1.004c0-.057.172-.143.258-.172.087-.029.23-.029.23 0 .133.138.231.305.287.488.168.373.449.684.803.889.31.19.67.28 1.033.259.482.021.957-.121 1.349-.402.86-.631 1.434-1.263 1.348-1.836a4.302 4.302 0 0 1-.057-.603c0-.143.115-.229.315-.287a.344.344 0 0 1 .402.086c0 .029.029.058.029.086.086.488.545.832.975 1.177a.643.643 0 0 0 .258.201c.488.2 1.665-.058 2.181-.488a.718.718 0 0 0 .287-.402 1.405 1.405 0 0 0-.115-1.234.857.857 0 0 1 .029-.832c0-.057.143-.172.258-.172.115 0 .258-.029.287.029.053.102.101.208.144.315.126.324.27.64.43.947.2.345.717.517 1.348.603a2.556 2.556 0 0 0 1.464-.316c.832-.43 1.262-.889 1.119-1.32-.144-.43-.316-.66-.46-1.004a1.546 1.546 0 0 1 0-.516.814.814 0 0 1 .287-.172h.316a1.021 1.021 0 0 1 .517.717c.065.268.161.528.286.775.23.315.775.401 1.55.373.746-.488 1.09-.919 1.176-1.349.086-.43-.2-1.09-.86-1.406a3.766 3.766 0 0 0-1.493-.258h-.832c.136-.156.316-.266.517-.316.44-.166.906-.253 1.377-.258.427-.003.85-.06 1.262-.172h.115c.336.563.588 1.172.746 1.807.086.603-.373 1.234-1.29 1.923a2.013 2.013 0 0 1-1.493.43 6.618 6.618 0 0 0-1.09-.029l-.488.345c-.373.201-.689.459-1.061.66a3.36 3.36 0 0 1-2.038.487l-1.147-.2-.43.459a2.648 2.648 0 0 1-1.32.746l-.603.143c-.775.23-1.349.201-1.693-.057l-.43-.316-.258.144a12.67 12.67 0 0 1-1.75 1.319 2.527 2.527 0 0 1-1.865.546 5.281 5.281 0 0 1-1.062-.23 2.344 2.344 0 0 1-.545-.258c-.058.115-.144.201-.172.258l-.086.316c-.173.545-.689.86-1.78 1.119a8.456 8.456 0 0 1-2.18.2h-.803l-.373.287-.517.517a3.563 3.563 0 0 1-2.324.717l-.602-.115c-.316.144-.23.259-.287.402-.058.143-1.004.947-1.98 1.205a3.498 3.498 0 0 1-1.779.086l-.803-.258-.373.344-.66.631c-1.09.919-2.037 1.177-3.357.976l-.516-.115-.287-.057a.487.487 0 0 0-.316.459c-.115.602-.975.975-2.066 1.147-1.09.173-1.578.115-2.037-.143l-.401-.143Z"/>
      <path d="M54.37 124.648a.545.545 0 0 1 .144.287c.029.305.029.613 0 .918-.086.459.201.804.717 1.119.517.316 1.492.144 2.009-.287h.057c.517-.66 1.205-1.348.861-1.98 0-.028-.029-.086-.029-.114 0-.029.144-.23.316-.258.172-.029.373.057.402.143.028.086.028.172.057.258.044.223.101.444.172.66.111.18.258.337.43.459.632.431 1.607.373 2.554-.172.947-.545 1.693-1.234 1.55-1.894a.775.775 0 0 1 .143-.459.553.553 0 0 1 .459-.201.458.458 0 0 1 .316.115c.076.099.116.22.114.345.058.43.545.717.976 1.004.166.09.356.13.545.114.86 0 2.267-.43 2.238-1.004-.029-.574.115-.975-.086-1.406-.201-.43 0-.172.459-.287a.95.95 0 0 1 .315.89 1.35 1.35 0 0 0 .23.775c.287.344.717.43 1.664.344l.488-.057c.602-.058.947-.23 1.176-.517.42-.41.701-.942.803-1.521.058-.373.201-.746.287-1.119.087-.373.03-.114.087-.143l.344-.115h.23a.29.29 0 0 1 .057.258c-.052.169-.09.342-.115.517.029.574.545.975 1.377 1.262a2.821 2.821 0 0 0 2.553-.487.778.778 0 0 0 .316-.574c-.028-.431-.057-.89-.114-1.32a.746.746 0 0 1 .057-.545.513.513 0 0 1 .488-.316c.315 0 .287.115.258.23a1.465 1.465 0 0 0 .258 1.147c.24.356.53.675.86.947.431.373 1.378.431 2.382.172 1.004-.258 1.062-.373 1.148-.717a2.87 2.87 0 0 0 .086-1.693 1.626 1.626 0 0 1-.115-.401c0-.058.086-.115.144-.173a.458.458 0 0 1 .43-.086c.084.069.16.146.23.23.258.373.172.832.23 1.234.026.226.084.449.171.66.073.14.182.259.316.344.43.287 1.406.172 1.95-.201.546-.373.431-.373.431-.574.01-.326-.01-.652-.057-.975-.037-.323.013-.65.143-.947l.201-.23.373.144a.684.684 0 0 1 .201.688 1.266 1.266 0 0 0 .574 1.148c.109.099.235.177.373.23a1.465 1.465 0 0 0 1.234-.115c1.09-.574 1.692-1.177 1.635-1.808a1.44 1.44 0 0 0-.115-.373c-.2-.344 0-.746.201-1.119.2-.373.43-.028.488.058.05.09.089.186.115.287.114.43.258.86.373 1.262a1.726 1.726 0 0 0 .946.975c.402.201.718.201 1.32 0 .603-.2 1.09-.545 1.234-.918.143-.373-.057-1.119-.43-1.606-.373-.488-.115-.574.114-.918l.201-.115c.172-.029.258.028.287.086l.115.287c.143.459.287.918.401 1.348.115.431.574.775 1.263 1.033l.459.115c.287.057.631-.057.689-.23.146-.413.271-.835.373-1.262a.746.746 0 0 0-.402-.803.46.46 0 0 1-.258-.574c0-.086.143-.201.287-.258a.823.823 0 0 1 .688-.029c.029.057.058.086.058.143.114.517.258 1.033.344 1.55a1.386 1.386 0 0 1-.316 1.119c-.487.659-1.348.889-2.381.573l-.775-.286-.717.516c-.447.332-.97.549-1.52.631-.919.172-1.493.115-1.866-.229a3.858 3.858 0 0 1-.487-.459.462.462 0 0 0-.43.172 8.009 8.009 0 0 1-1.493 1.061 1.973 1.973 0 0 1-1.607.287c-.975-.143-.975-.143-1.836.287l-.315.172a3.5 3.5 0 0 1-2.496.259l-.201-.058-.259-.057-.746.344a6.199 6.199 0 0 1-2.524.488c-.66-.029-1.148-.115-1.435-.373l-.459-.373-.46.488a2.53 2.53 0 0 1-1.204.717c-.918.287-1.808.344-2.496.086a8.12 8.12 0 0 1-1.033-.459 2.112 2.112 0 0 0-.258.229l-.545.66c-.546.746-2.611 1.234-3.788 1.005l-.315-.058-.402-.057-.746.287c-.402.143-.803.315-1.205.43a2.64 2.64 0 0 1-1.722-.057l-.545-.345-.258-.229-.316.258a6.955 6.955 0 0 1-1.692 1.32 3.367 3.367 0 0 1-1.12.459c-.86.201-1.549.172-2.065-.057l-.574-.345-.344.287c-.144.172-.259.344-.43.517a2 2 0 0 1-.89.487c-1.09.316-1.492.316-2.152.058l-.545-.23-.803.402a2.726 2.726 0 0 1-1.894.258l-1.004-.229a1.425 1.425 0 0 0-.488.344c-.334.288-.712.52-1.119.688a1.6 1.6 0 0 1-1.349.087l-.688-.345-.115.058c-.373.688-1.52 1.033-2.754 1.291s-1.722 0-1.75-.431c-.03-.43-.03-1.319-.03-2.008a.203.203 0 0 1 .058-.172l.345-.144c.057 0 .2.029.2.058a.8.8 0 0 1 .115.344c.029.459.029.918.029 1.377 0 .459.172.402.43.545.243.114.518.134.775.058 1.033-.172 1.721-.488 1.922-.976.095-.258.153-.529.172-.803a8.073 8.073 0 0 0 0-.832.375.375 0 0 1 .058-.23l.315-.114c.058-.029.23 0 .23.028a.46.46 0 0 1 .143.316 3.917 3.917 0 0 1-.057.574c.029.43.402.746.975 1.004a1.091 1.091 0 0 0 1.09-.144c.718-.459.89-.889.69-1.348a3.42 3.42 0 0 1-.23-.574c.021-.151.07-.297.143-.43l.201-.115.287.057c.123.214.21.447.258.689.086.488.631.803 1.377 1.061a1.133 1.133 0 0 0 .919-.057c.545-.172.889-.402.946-.66.058-.258.087-.602.144-.889.022-.308.06-.615.115-.918 0-.115.143-.201.459-.23ZM53.654 111.679l-.259.259a5.464 5.464 0 0 1-.516.631c-.602.574-1.32.746-2.324.545l-.717-.172-.546.373a3.824 3.824 0 0 1-2.983.459 5.359 5.359 0 0 1-.718-.258l-.373-.201a2.32 2.32 0 0 1-.172.488c-.143.401-.602.66-1.434.803a3.7 3.7 0 0 1-1.98-.086l-.517-.258-.373.258-.315.602c-.23.345-.603.66-1.435.832-.832.173-1.348.029-1.721-.2-.373-.23-1.263-1.091-1.349-1.779a2.478 2.478 0 0 1 0-.459.748.748 0 0 1 .201-.316c.32-.088.656-.088.976 0 .315.057.459.172.315.344-.574.718-.23 1.205.402 1.665.14.13.294.246.459.344a.942.942 0 0 0 .947-.115l.373-.344a2.44 2.44 0 0 0 .803-1.75c.003-.346.031-.692.086-1.033-.26.01-.52-.009-.774-.058a.23.23 0 0 1-.214-.287.227.227 0 0 1 .07-.114c.434.024.86.121 1.263.287.227-.043.457-.072.688-.087h.832c.517.087.43.316-.115.517l-.688.201a.952.952 0 0 0 0 .287c.115.287.287.545.401.832.115.287.46.373.976.401a1.173 1.173 0 0 0 1.004-.315.95.95 0 0 0 .258-.459c.105-.512.182-1.029.23-1.55.029-.143 0-.315.029-.459.028-.143.172-.172.344-.172s.373-.029.402.029a.314.314 0 0 1 .143.287c0 .459.287.861.631 1.262.26.295.616.488 1.005.545l.602.058c.66-.029 1.263-.287 1.349-.603a2.67 2.67 0 0 0 .114-.947c0-.401-.057-.774-.086-1.176-.028-.402.115-.172.287-.201.152-.029.307-.029.46 0 .03 0 .059.012.08.034a.114.114 0 0 1 .034.081c.07.177.128.359.172.545 0 .172-.057.316-.057.488s.43.746 1.061 1.004l.316.057c.29.055.588-.007.832-.172.14-.128.265-.273.373-.43a2.041 2.041 0 0 0 .373-1.549c0-.115-.086-.201-.057-.316a.66.66 0 0 1 .315-.201.994.994 0 0 1 .43.029.544.544 0 0 1 .144.287c.115.545.574.975 1.234 1.377.434.221.92.32 1.406.287.774 0 1.32-.201 1.549-.603a.314.314 0 0 0 .086-.229c.143-.718.316-1.406.2-2.095a.377.377 0 0 1 .154-.331.373.373 0 0 1 .363-.042c.086.058.201.115.23.172.045.189.074.381.086.574.029.603.574 1.033 1.635 1.234.293.06.591.089.89.086.717-.057 1.348-.344 1.578-.689a.855.855 0 0 0 .143-.401c.029-.488.029-.947.058-1.406a.402.402 0 0 1 .086-.287c.135-.069.28-.117.43-.143l.258.086c.029.143.029.258.058.401.172.66.746 1.177 1.635 1.578l.344.115c.252.056.514.026.746-.086a2.408 2.408 0 0 0 1.005-.746c.401-.717.746-1.406.516-2.037a.172.172 0 0 1-.029-.115c0-.115 0-.201.23-.287.23-.086.574-.028.66.086a.291.291 0 0 1 .057.259 1.404 1.404 0 0 0 .402 1.205c.3.338.672.603 1.09.774a1.657 1.657 0 0 0 1.406-.143c.213-.116.384-.297.488-.517a2.78 2.78 0 0 0 .315-1.606c0-.172-.028-.373-.028-.545 0-.173.143-.144.23-.144a.692.692 0 0 1 .344 0 .46.46 0 0 1 .172.23c.057.287.057.573.114.86.058.287 1.005.89 2.124.861.459 0 .717-.086.86-.316.17-.289.305-.597.402-.918.172-.487.287-1.004.43-1.492a.228.228 0 0 1 .058-.2c.057-.144.172-.201.746-.259 0 .144-.029.287-.029.402-.057.631.23 1.205.89 1.664.14.099.295.177.459.23.458.102.94.031 1.348-.201l.144-.086a6.413 6.413 0 0 0 1.405-1.578.747.747 0 0 0-.086-.804.6.6 0 0 1-.172-.287c0-.028.086-.086.144-.114a.732.732 0 0 1 .344-.029.291.291 0 0 1 .2.143c.115.189.24.371.374.546.186.268.397.518.631.746.258.286.803.315 1.52.2l.66-.143a.606.606 0 0 0 .259-.517l.344-1.549c.029-.115.029-.229.344-.287.316-.057.517.029.488.172-.115.603.402 1.062.947 1.492.071.071.16.121.258.144.458.131.948.09 1.377-.115l.546-.402c.66-.66.774-1.262.401-1.807a1.969 1.969 0 0 1-.143-.373.26.26 0 0 1 .115-.201c.09-.075.199-.125.315-.143a.37.37 0 0 1 .373.057c.057.057.057.115.086.172l.258.689c.16.334.435.6.775.746.287.143.545.143 1.033-.029.488-.172.832-.373.832-.631 0-.259-.057-.746-.057-1.091 0-.344-.03-.43-.058-.631-.028-.201 0-.115.058-.143.09-.077.199-.126.315-.144a.541.541 0 0 1 .316.029c.093.194.17.395.23.603.028.258.028.545.057.803.025.137.063.272.115.402.086.2.516.2.946.057.25-.075.47-.225.632-.43.286-.373.373-.718.229-1.033a4.051 4.051 0 0 0-.402-.66c-.057-.058-.143-.115-.143-.201 0-.086.115-.115.2-.172a.655.655 0 0 1 .46-.029.372.372 0 0 1 .2.144c.173.341.317.696.431 1.061a1.036 1.036 0 0 1-.373.976c-.373.43-.947.688-1.865.774-.475.002-.94.131-1.348.373a1.96 1.96 0 0 1-.43.201 2.524 2.524 0 0 1-1.751.144l-.574-.201-.315.344c-.105.169-.22.332-.345.488-.344.401-.975.66-1.836.774-.86.115-1.291.029-1.578-.258l-.402-.43-.23.229c-.05.081-.088.168-.114.259-.115.258-.172.516-.832.688a4.59 4.59 0 0 1-2.123.172l-.603-.229a2.92 2.92 0 0 1-.516-.258l-.402.401a8.162 8.162 0 0 1-.688.718l-.517.43a2.73 2.73 0 0 1-2.295.344 2.177 2.177 0 0 1-.86-.487l-.46-.373a5.516 5.516 0 0 1-.143.573 3.132 3.132 0 0 1-.373.66c-.23.316-.746.488-1.406.517-.66.028-.574 0-.861 0l-.717-.086a1.43 1.43 0 0 0-1.12.287l-.544.43c-.775.516-1.808.689-2.583.344a4.123 4.123 0 0 1-.918-.574l-.287-.258-.344.431a3.101 3.101 0 0 1-.975.946l-.603.345c-.44.198-.934.248-1.406.143a5.563 5.563 0 0 1-.832-.344l-.631-.373c-.287.057-.201.115-.258.172l-.086.201c-.316.631-2.325 1.262-3.5 1.033a5.844 5.844 0 0 1-.833-.23l-.631-.172c-.057.115-.115.172-.115.23a1.08 1.08 0 0 1-.086.286c-.402.861-2.295 1.435-3.701 1.091a3.417 3.417 0 0 1-.86-.373l-.517-.345ZM39.767 120.545c.918-.545 1.119-1.033 1.09-1.549-.029-.517-.057-.689-.086-1.033a.319.319 0 0 1 .081-.242.313.313 0 0 1 .235-.102c.315-.029.401.057.458.143.176.239.32.499.43.775a1.3 1.3 0 0 0 .718.746l.918.401a1.752 1.752 0 0 0 1.349-.114c.545-.23.832-.488.89-.775.057-.287 0-.66.028-.976v-.832a.117.117 0 0 1 .029-.086c.028-.115.143-.172.315-.201.172-.028.344-.057.402.029a.346.346 0 0 1 .143.201c.23.287.43.602.689.889.258.287.832.632 1.779.718l.258-.259c.517-.774.832-1.52.631-2.18a.115.115 0 0 1 0-.144c0-.114.258-.2.46-.2.2 0 .516.057.573.2.058.144-.028.115-.028.173.057.545.573.889 1.405 1.119.308.085.628.124.947.114a.74.74 0 0 0 .66-.229c.116-.176.203-.37.258-.574.058-.287.029-.545.058-.803.028-.259.028-.373.057-.546a.37.37 0 0 1 .316-.2.423.423 0 0 1 .401.028l.144.259c.258.602 1.033 1.032 1.894 1.405l.401.086c.35.03.702-.05 1.004-.229.182-.133.338-.298.46-.488.233-.377.324-.824.258-1.262a3.152 3.152 0 0 1-.058-.517.679.679 0 0 1 .258-.143.45.45 0 0 1 .402 0l.144.201c.083.263.15.531.2.803.058.402.46.66 1.005.861.545.201 2.41-.201 2.668-.66a.89.89 0 0 0 .143-.344c.087-.603.201-1.205.287-1.808a.117.117 0 0 1 .029-.086.458.458 0 0 1 .258-.143c.142-.029.289-.029.43 0a.225.225 0 0 1 .144.143c.086.66 1.004 1.033 1.693 1.492.688.459.66.229 1.262.086.603-.143 1.062-.459 1.12-.746a.46.46 0 0 0-.03-.287c-.2-.545-.057-1.176-.085-1.779 0-.057.057-.115.114-.201l.258-.086h.23c.066.07.124.147.172.23.183.525.251 1.082.201 1.635-.02.154-.01.309.029.459.114.259.803.287 1.434.058.271-.095.51-.264.689-.488.219-.294.384-.624.488-.976.109-.49.176-.989.2-1.491.03-.058-.028-.115 0-.173a.375.375 0 0 1 .201-.143h.345c.08.056.14.136.172.229.143.259.258.546.373.804.114.258.717.717 1.463.889.354.112.731.122 1.09.029.46-.115.517-.344.545-.545.03-.201.144-.976.201-1.435a1.405 1.405 0 0 1 .029-.344c0-.086.086-.201.344-.23.258-.028.545-.028.574.086.029.115-.029.201 0 .287.029.086-.029.316.115.431.387.354.8.68 1.234.975.43.287 1.147.144 1.635-.287a.94.94 0 0 0 .402-.717c0-.402-.058-.775-.086-1.176a.978.978 0 0 1-.03-.402c0-.115.173-.172.345-.201l.316.058a.4.4 0 0 1 .086.258c.086.373.373.66.86.889l1.148.459a1.311 1.311 0 0 0 1.148-.201c.316-.2.488-.401.488-.602 0-.201.086-.775.114-1.176a1.066 1.066 0 0 1-.028-.316.488.488 0 0 1 .23-.172c.151-.029.307-.029.458 0a.259.259 0 0 1 .172.229c.053.256.091.515.115.775.08.287.264.533.517.689a.834.834 0 0 0 .774-.058c.574-.315.89-.631 1.005-.975.16-.352.181-.753.057-1.119a1.949 1.949 0 0 1-.057-.402c0-.115.172-.201.373-.229.2-.029.401 0 .43.086.052.236.09.476.115.717a3.087 3.087 0 0 0 0 .516c.028.345.258.603.717.832l.574.144c.388.05.783 0 1.147-.144.36-.118.68-.337.919-.631a1.059 1.059 0 0 0 .2-.975c-.114-.402-.2-.775-.315-1.148a1.066 1.066 0 0 1 .029-.316.69.69 0 0 1 .287-.172h.344c.098.057.17.149.2.258.115.46.201.919.316 1.378.056.13.123.255.201.373.115.143.402.172.775.114a.954.954 0 0 0 .416-.099.953.953 0 0 0 .33-.274 1.89 1.89 0 0 0 .344-1.463 8.4 8.4 0 0 1-.23-.803c.546-.258.861-.258.919-.029.114.66.172 1.32-.259 2.066-.126.186-.27.359-.43.516a2.042 2.042 0 0 1-1.492.488h-.86l-.632.517c-.775.659-2.41.889-3.213.545l-.718-.345-.487.402-.546.344c-.688.373-1.233.431-1.807.201l-.316-.086-.401.258-.574.431c-.389.23-.847.312-1.291.229-.373-.057-.718-.172-1.062-.258l-.803-.258a.724.724 0 0 0-.23.516c-.028.459-.602.804-1.434 1.091-.447.181-.94.211-1.406.086a2.985 2.985 0 0 1-.804-.345 2.565 2.565 0 0 1-.545-.459.403.403 0 0 0-.057.287c-.006.116.004.232.028.344.058.373-.487.746-1.32.89-.831.143-1.549.143-2.065-.057-.517-.201-.66-.058-1.004-.23-.344-.172-.201-.115-.258-.029a3.802 3.802 0 0 1-.345.574c-.241.37-.578.668-.975.861a3.193 3.193 0 0 1-1.865.402l-.66-.058-.89.344c-.918.345-1.606.402-2.238.144-.63-.258-.545-.316-.803-.459l-.488-.287c-.286.373-.573.66-.43.947.144.287-.086.344-.402.516-.315.172-.89.431-1.377.603a3.384 3.384 0 0 1-1.894.172l-.717-.258-.574-.259c-.063.132-.14.257-.23.373-.516.689-2.122 1.062-3.012.689a9.488 9.488 0 0 1-.918-.516c-.172-.086-.258-.201-.488-.23-.23-.029-.2.115-.172.172a.29.29 0 0 0 .115.201c.2.258 0 .488-.46.746a2.924 2.924 0 0 1-1.491.344 4.127 4.127 0 0 1-1.693-.315l-.66-.259c-.287.201-.258.373-.344.546a8.864 8.864 0 0 1-.46.774.973.973 0 0 1-.257.23 1.634 1.634 0 0 1-1.09.258 3.935 3.935 0 0 1-1.35-.43 1.462 1.462 0 0 0-.602-.287c-.258.086-.114.143-.143.201a.542.542 0 0 1-.029.229c-.086.603-.746 1.033-1.98 1.349A2.821 2.821 0 0 1 42.98 120l-.574-.258-.545-.172-.316.373c-.258.373-.774.659-1.491.889a3.186 3.186 0 0 1-1.693.115l-.201-.086c-1.09-.517-1.951-1.119-1.865-2.037.602-.23.86-.23 1.09-.086a1.2 1.2 0 0 1 .603.975c0 .201 0 .402.287.516.466.221.977.329 1.492.316ZM47.37 106.257a.544.544 0 0 1 .144.287c.053.303.062.612.028.918-.057.459.258.803.804 1.09.545.287 1.463.144 1.98-.287l.057-.057c.487-.66 1.147-1.349.774-1.98 0-.029-.028-.086-.028-.115a.43.43 0 0 1 .315-.258c.201-.029.345.029.402.115.057.086.029.172.057.287.051.219.128.431.23.631.103.186.251.344.43.459.631.43 1.607.344 2.554-.201.947-.545 1.635-1.234 1.463-1.922a.775.775 0 0 1 .115-.459.54.54 0 0 1 .46-.201.543.543 0 0 1 .343.115c.056.108.094.224.115.344.057.402.574.689 1.004 1.004.183.068.379.098.574.086.86-.028 2.238-.459 2.18-1.061-.057-.603.087-.947-.143-1.377-.23-.431 0-.173.43-.316a1.033 1.033 0 0 1 .373.889c-.017.282.075.56.259.775.315.344.746.43 1.664.316l.516-.058c.574-.086.918-.229 1.148-.516.389-.425.648-.953.746-1.521.049-.387.125-.771.23-1.148.028-.028.028-.086.085-.143l.316-.115a.378.378 0 0 1 .258.029c.029.086.086.172.058.258a2.134 2.134 0 0 0-.086.517c0 .172.573.946 1.434 1.233a2.728 2.728 0 0 0 2.525-.545.605.605 0 0 0 .287-.574c-.058-.43-.086-.86-.172-1.291a.889.889 0 0 1 .057-.545.457.457 0 0 1 .46-.315c.315 0 .315.114.286.2a1.406 1.406 0 0 0 .316 1.148c.242.363.542.683.89.947.458.373 1.376.402 2.38.143 1.005-.258 1.034-.401 1.12-.746a2.636 2.636 0 0 0 0-1.692c-.03-.115-.087-.259-.115-.402-.029-.144.086-.115.115-.172a.485.485 0 0 1 .43-.086c.096.052.184.12.258.2.258.402.201.833.287 1.234.037.228.104.45.2.66a.714.714 0 0 0 .316.344c.46.287 1.406.173 1.951-.229a.753.753 0 0 0 .402-.574c0-.327-.029-.653-.086-.975a1.55 1.55 0 0 1 .115-.947l.172-.23.373.115a.69.69 0 0 1 .23.689 1.374 1.374 0 0 0 .63 1.176l.374.201a1.514 1.514 0 0 0 1.262-.115c1.033-.603 1.636-1.205 1.55-1.865a1.747 1.747 0 0 0-.144-.344c-.2-.345-.029-.746.172-1.148.201-.402.43-.029.488.057.055.099.094.205.115.316l.43 1.234c.115.401.488.717 1.004.975.517.259.689.172 1.291-.057.603-.23 1.09-.545 1.205-.89.115-.344-.086-1.147-.487-1.606-.402-.46-.144-.603.086-.918l.2-.115c.144-.029.23 0 .259.057.06.1.107.206.143.316l.46 1.32c.143.459.602.774 1.29 1.004l.46.115c.315.028.66-.086.688-.23.146-.42.251-.852.316-1.291a.746.746 0 0 0-.43-.775.43.43 0 0 1 0-.832.83.83 0 0 1 .688-.028l.086.114c.115.517.287 1.033.402 1.55a1.346 1.346 0 0 1-.287 1.119c-.46.688-1.291.889-2.353.602a6.935 6.935 0 0 1-.803-.287l-.689.574a3.775 3.775 0 0 1-1.492.631c-.918.201-1.492.144-1.894-.201l-.487-.459a.545.545 0 0 0-.43.173 7.544 7.544 0 0 1-1.435 1.09 2.001 2.001 0 0 1-1.607.315c-1.004-.114-1.004-.114-1.836.316l-.316.172a3.59 3.59 0 0 1-2.467.316l-.23-.086-.23-.058-.745.345a5.72 5.72 0 0 1-2.525.545 2.41 2.41 0 0 1-1.435-.345l-.487-.373-.43.517a2.84 2.84 0 0 1-1.177.717c-.795.32-1.675.36-2.496.115-.373-.115-.66-.287-1.033-.43a1.032 1.032 0 0 0-.258.229l-.517.66c-.516.746-2.582 1.262-3.758 1.062l-.316-.058-.402-.057-.746.315c-.401.144-.774.316-1.176.431a2.697 2.697 0 0 1-1.721 0c-.23-.115-.373-.258-.574-.373l-.259-.201-.287.258a7.415 7.415 0 0 1-1.664 1.349c-.34.202-.707.357-1.09.459a3.22 3.22 0 0 1-2.094-.029l-.603-.344-.287.315c-.172.173-.287.345-.43.517a1.9 1.9 0 0 1-.86.488c-1.091.344-1.493.373-2.181.086l-.546-.201-.774.43a2.919 2.919 0 0 1-1.894.287l-1.004-.229a.856.856 0 0 0-.46.344c-.333.288-.71.52-1.118.688a1.545 1.545 0 0 1-1.32.115c-.287-.086-.488-.229-.746-.315l-.115.057c-.315.689-1.463 1.033-2.697 1.32-1.233.287-1.693.029-1.75-.402-.057-.43-.086-1.32-.115-2.008a.2.2 0 0 1 .058-.172.79.79 0 0 1 .315-.144l.23.058a.799.799 0 0 1 .115.344c.057.447.086.897.086 1.348a.806.806 0 0 0 .43.545c.253.114.537.134.803.058 1.033-.172 1.693-.517 1.894-1.004.087-.26.135-.53.143-.804 0-.287-.057-.545-.057-.832a.372.372 0 0 1 .057-.229l.316-.115h.23a.66.66 0 0 1 .172.344 3.487 3.487 0 0 0-.029.545c.029.431.402.746.976 1.005a1.155 1.155 0 0 0 1.119-.173c.688-.459.832-.889.63-1.319a5.464 5.464 0 0 1-.257-.603.8.8 0 0 1 .114-.43l.201-.115c.115 0 .287.029.287.057.143.207.241.442.287.689.086.488.66.803 1.435 1.033a1.15 1.15 0 0 0 .918-.058c.545-.172.86-.401.918-.688.057-.287.057-.603.086-.89l.086-.918c0-.114.143-.201.46-.229Z"/>
    </g>
    <path fill="url(#d)" d="m59.965 99.686-.545 3.386 3.816 8.349 1.119-8.349-.574-4.218-3.816.832Z"/>
    <path fill="#AD6247" d="M61.973 100.604a6.197 6.197 0 1 0 .001-12.394 6.197 6.197 0 0 0 0 12.394Z"/>
    <path fill="url(#e)" d="M53.653 91.595a6.972 6.972 0 1 0 0-13.944 6.972 6.972 0 0 0 0 13.944Z"/>
    <path fill="#8A76E8" d="M56.465 89.673a1.75 1.75 0 1 0 0-3.5 1.75 1.75 0 0 0 0 3.5Z"/>
    <path fill="#271A38" d="M58.071 99.83c-2.037-.23-4.418-3.328-4.275-6.886a7.087 7.087 0 0 1 6.485-6.857c3.73-.316 6.971 1.406 7.89 4.82 0 0 .717 3.185-8.235 2.697-.086.975-1.635 2.152-1.635 2.152v2.151l-.23 1.923Z"/>
    <path fill="#AD6247" d="M58.014 97.018a1.435 1.435 0 1 0 0-2.869 1.435 1.435 0 0 0 0 2.87Z"/>
    <path fill="#271A38" d="M61.888 98.108a2.238 2.238 0 0 1-1.951-1.004.147.147 0 0 1 .057-.2.148.148 0 0 1 .2.057 1.921 1.921 0 0 0 1.694.86.143.143 0 0 1 0 .287Z"/>
    <path fill="#AD6247" d="m53.825 103.864-.02-.02a2.812 2.812 0 0 0-3.977.049l-12.993 13.314a2.812 2.812 0 0 0 .049 3.976l.02.02a2.812 2.812 0 0 0 3.976-.048l12.993-13.315a2.812 2.812 0 0 0-.048-3.976Z"/>
    <path fill="#AD6247" d="m49.98 129.153-12.795-7.489a2.486 2.486 0 0 1-1.312-1.406 2.5 2.5 0 0 1 .078-1.922 2.556 2.556 0 0 1 3.357-1.234l12.366 7.718c.172-.396.405-.764.688-1.09.058.402.46 1.779 1.349 1.865.89.086 2.123.258 2.754.402.631.143.717 1.147 0 1.176.46.143.947.315.89.775-.058.459-1.205.573-1.205.573s.745.259.63.746c-.114.488-.573.718-1.377.488a.543.543 0 0 1 .316.775c-.2.459-1.033.373-1.95.172a12.928 12.928 0 0 1-3.788-1.549Z"/>
    <path fill="#EDB3B2" d="M156.684 55.387a.796.796 0 0 0-.556-.285.804.804 0 0 0-.592.199l-2.065 1.836 2.639-3.07a.802.802 0 0 0 .195-.592.817.817 0 0 0-.872-.75.81.81 0 0 0-.556.28l-2.525 2.84 2.611-3.844a.8.8 0 0 0 .016-.893.81.81 0 0 0-.505-.351.8.8 0 0 0-.831.326l-2.64 3.816 1.808-3.3a.776.776 0 0 0-.316-1.09.798.798 0 0 0-.627-.082.813.813 0 0 0-.492.398l-1.779 3.27a4.985 4.985 0 0 1-.573.804.752.752 0 0 1-.868.174.745.745 0 0 1-.424-.777c-.028-.86.086-2.266-.946-2.037-1.033.23-.718 2.238-.746 3.214.01.825.068 1.649.172 2.467.115 1.004-1.119 2.697-1.119 2.697l5.136 3.53 3.787-5.366 2.611-2.267a.815.815 0 0 0 .27-.561.807.807 0 0 0-.213-.586ZM83.148 61.842a.803.803 0 0 1 1.09-.344l2.44 1.32-3.243-2.382a.805.805 0 0 1-.2-1.119.833.833 0 0 1 1.147-.2l3.099 2.18-3.443-3.127a.832.832 0 0 1 1.119-1.205l3.414 3.127-2.525-2.812a.832.832 0 0 1 .086-1.147.832.832 0 0 1 1.148.057l2.467 2.783c.218.245.469.458.746.631.373.259 1.349.144 1.148-.86-.201-1.005-.631-2.18.459-2.21 1.09-.028 1.205 2.009 1.434 2.956.188.813.322 1.637.402 2.467.115.976 1.693 2.353 1.693 2.353l-4.189 4.62-4.906-4.362-3.041-1.635a.805.805 0 0 1-.345-1.09Z"/>
    <path fill="#9DA9F3" d="m89.862 67.494 15.436 26.483a8.944 8.944 0 0 1 1.434 4.82v14.977h28.089v-14.26a11.214 11.214 0 0 1 1.378-5.451l14.345-30.011-5.996-2.525-16.641 23.87a3.82 3.82 0 0 1-3.099 1.608h-8.665a4.936 4.936 0 0 1-3.902-1.894l-17.416-21.49-4.963 3.873Z"/>
    <path fill="#8A76E8" d="m94.599 63.408-4.99 3.913a.43.43 0 0 0-.073.604l2.082 2.655a.43.43 0 0 0 .604.073l4.99-3.912a.43.43 0 0 0 .073-.605l-2.082-2.655a.43.43 0 0 0-.605-.073ZM151.151 63.355l-5.474-3.528a.344.344 0 0 0-.476.103l-1.921 2.98a.344.344 0 0 0 .103.477l5.474 3.528c.16.103.373.057.476-.103l1.921-2.98a.344.344 0 0 0-.103-.477Z"/>
    <path fill="url(#f)" d="m123.746 87.75-3.3 2.64-3.299-2.64v-4.906h6.599v4.907Z"/>
    <path fill="#8A76E8" d="M120.82 89.443h-.775v24.285h.775V89.443Z"/>
    <path fill="#8A76E8" d="m120.447 89.53-1.693 2.38-3.213-4.963 1.607-1.75 3.299 4.332Z"/>
    <path fill="#8A76E8" d="m120.447 89.53 1.693 2.38 3.214-4.963-1.607-1.75-3.3 4.332Z"/>
    <path fill="#EDB3B2" d="M120.505 85.427c3.866 0 7-3.34 7-7.46s-3.134-7.46-7-7.46c-3.867 0-7.001 3.34-7.001 7.46s3.134 7.46 7.001 7.46Z"/>
    <path fill="#EDB3B2" d="M113.877 80.119c.887 0 1.606-.771 1.606-1.722 0-.95-.719-1.721-1.606-1.721-.888 0-1.607.77-1.607 1.721 0 .951.719 1.722 1.607 1.722Z"/>
    <path fill="#9DA9F3" d="m113.647 79.43.459-1.836a1.982 1.982 0 0 0 1.349-1.722 3.13 3.13 0 0 0-.689-2.151s-2.238.918-1.119 5.71Z"/>
    <path fill="#EDB3B2" d="M127.133 80.118c.887 0 1.606-.77 1.606-1.721 0-.95-.719-1.722-1.606-1.722-.888 0-1.607.771-1.607 1.722 0 .95.719 1.721 1.607 1.721Z"/>
    <path fill="#9DA9F3" d="m127.362 79.43-.459-1.836a1.923 1.923 0 0 1-1.349-1.722 2.985 2.985 0 0 1 .689-2.151s2.238.918 1.119 5.71Z"/>
    <path fill="#271A38" d="M118.725 82.5c-.293 0-.58-.08-.832-.23a2.126 2.126 0 0 1-.746-1.118.205.205 0 0 1 .033-.102.207.207 0 0 1 .082-.07c.086 0 .172.028.172.114.095.38.318.714.631.947a1.378 1.378 0 0 0 1.09.115c.086 0 .173.028.173.115a.143.143 0 0 1-.087.172l-.516.057Z"/>
    <path fill="#9DA9F3" d="m120.303 70.507-.918-1.922 1.263 1.721.287-1.52v1.463l.746-.545-.459.975s-.632.46-.919-.172Z"/>
    <path fill="url(#g)" d="M204.11 62.933c-.918.832-1.693 1.262-2.582.23l-.861-1.09a1.036 1.036 0 0 0-1.101-.36 1.034 1.034 0 0 0-.743.884c-.032.273.043.547.209.766l1.176 1.463c1.291 1.636 0 3.157 0 3.157l3.787 4.82 5.136-4.046c1.291-1.004 1.148-1.807 1.148-1.807s-5.911-4.247-6.169-4.017Z"/>
    <path fill="#CC8269" d="m205.934 61.322-1.871 1.472a.86.86 0 0 0-.144 1.21l.014.017a.86.86 0 0 0 1.208.144l1.872-1.472a.861.861 0 0 0 .144-1.21l-.014-.017a.861.861 0 0 0-1.209-.144Z"/>
    <path fill="#CC8269" d="m207.589 62.231-2.458 1.934a.86.86 0 0 0-.144 1.21l.014.017a.861.861 0 0 0 1.209.144l2.457-1.934a.86.86 0 0 0 .145-1.208l-.015-.018a.86.86 0 0 0-1.208-.145Z"/>
    <path fill="#CC8269" d="m208.313 63.857-2.097 1.65a.86.86 0 0 0-.144 1.209l.014.018a.861.861 0 0 0 1.209.144l2.097-1.65a.861.861 0 0 0 .144-1.21l-.014-.017a.861.861 0 0 0-1.209-.144Z"/>
    <path fill="#CC8269" d="M209.132 65.428 207.26 66.9a.861.861 0 0 0-.144 1.208l.014.018a.861.861 0 0 0 1.209.145l1.872-1.473a.861.861 0 0 0 .144-1.209l-.014-.018a.861.861 0 0 0-1.209-.144Z"/>
    <path fill="#271A38" d="M181.473 78.598a.891.891 0 0 0-.201-.602c.14-.244.209-.522.201-.804a1.604 1.604 0 0 0-.259-.889c.083-.19.122-.396.115-.602a1.607 1.607 0 0 0-1.607-1.607l-.459.057a2.007 2.007 0 0 0-1.348-.516 2.099 2.099 0 0 0-.861.2 2.21 2.21 0 0 0-1.406 0 1.174 1.174 0 0 0-.688-.229.948.948 0 0 0-.431.086.834.834 0 0 0-.803-.574.86.86 0 0 0-.832.66h-.115a.829.829 0 0 0-.688.402h-.345a1.666 1.666 0 0 0-1.635 1.291h-.058a.688.688 0 0 0-.688.545 1.378 1.378 0 0 0-1.32 1.377c.005.145.024.29.057.43a1.204 1.204 0 0 0-.573.976c.005.216.075.426.2.603-.167.19-.259.435-.258.688a1.156 1.156 0 0 0 .459.918.832.832 0 0 0-.201.517.66.66 0 0 0 .173.459.774.774 0 0 0-.173.488.836.836 0 0 0 .818.986.835.835 0 0 0 .806-.624.852.852 0 0 0 .012-.362.78.78 0 0 0-.172-.488.862.862 0 0 0 .143-.46.685.685 0 0 0-.115-.43 1.15 1.15 0 0 0 .574-1.004 1.176 1.176 0 0 0-.201-.63c.122-.2.191-.427.201-.66a.23.23 0 0 0-.028-.116 1.353 1.353 0 0 0 1.004-1.29.49.49 0 0 0-.029-.202c.292.215.642.335 1.004.345a1.695 1.695 0 0 0 1.664-1.693 1.831 1.831 0 0 0-.086-.574.822.822 0 0 0 .258-.43h.201a1.148 1.148 0 0 0 .402.89.804.804 0 0 0-.029.257 2.213 2.213 0 0 0 2.21 2.18c.51.001 1.005-.17 1.405-.487h.259a1.721 1.721 0 0 0 1.549 1.32c.03.103.079.2.143.287a.775.775 0 0 0 .316 1.09.657.657 0 0 0-.316.574.577.577 0 0 0 .087.316.917.917 0 0 0-.66.86.912.912 0 0 0 .766.966.92.92 0 0 0 1.044-1.114.911.911 0 0 0-.204-.397.685.685 0 0 0 .373-.631.662.662 0 0 0-.315-.574.809.809 0 0 0 .43-.717 1.04 1.04 0 0 0-.057-.287 1.076 1.076 0 0 0 .287-.775Z"/>
    <path fill="#CC8269" d="M169.049 85.255a1.578 1.578 0 1 0 0-3.156 1.578 1.578 0 0 0 0 3.156ZM179.665 85.255a1.578 1.578 0 1 0 0-3.157 1.578 1.578 0 0 0 0 3.157Z"/>
    <path fill="#F9AB2D" d="M200.008 67.38s-12.51 17.817-14.891 20.256a15.921 15.921 0 0 1-4.706 3.472h-14.977c-1.951 0-6.283 1.176-8.205 5.566-1.923 4.39-5.337 12.509-5.337 12.509l7.316 2.382v12.854a6.77 6.77 0 0 0 6.772 6.771h15.12c3.73 0 6.742-1.205 6.742-4.935v-16.928c0-1.923.345-4.074.574-5.939.431-3.357 2.64-8.034 3.702-9.64 1.061-1.607 13.714-21.749 13.714-21.749l-5.824-4.62Z"/>
    <mask id="h" width="55" height="65" x="151" y="67" maskUnits="userSpaceOnUse" style="mask-type:alpha">
      <path fill="#F9AB2D" d="M200.008 67.38s-12.51 17.817-14.891 20.256a15.921 15.921 0 0 1-4.706 3.472h-14.977c-1.951 0-6.283 1.176-8.205 5.566-1.923 4.39-5.337 12.509-5.337 12.509l7.316 2.382v12.854a6.77 6.77 0 0 0 6.772 6.771h15.12c3.73 0 6.742-1.205 6.742-4.935v-16.928c0-1.923.345-4.074.574-5.939.431-3.357 2.64-8.034 3.702-9.64 1.061-1.607 13.714-21.749 13.714-21.749l-5.824-4.62Z"/>
    </mask>
    <g fill="#FF7B6D" mask="url(#h)">
      <path d="m217.611 64.76-74.598 5.968.028.35 74.598-5.968-.028-.35ZM216.982 68.29l-74.378 5.724.027.349 74.378-5.723-.027-.35ZM218.084 70.803l-74.598 5.968.028.35 74.598-5.968-.028-.35ZM218.322 73.823l-74.598 5.968.028.35 74.598-5.968-.028-.35ZM217.645 77.335l-74.378 5.723.027.35 74.378-5.724-.027-.349ZM218.827 79.864l-74.598 5.968.028.35 74.598-5.968-.028-.35ZM218.135 83.363l-74.378 5.723.027.349 74.378-5.723-.027-.35ZM219.306 85.936l-74.598 5.968.028.35 74.598-5.968-.028-.35ZM219.545 88.959l-74.598 5.968.028.35 74.598-5.968-.028-.35ZM219.782 91.979l-74.597 5.968.028.35 74.597-5.968-.028-.35ZM220.018 95.001l-74.598 5.968.028.35 74.598-5.968-.028-.35ZM220.284 98.02l-74.597 5.967.028.35 74.597-5.968-.028-.35ZM219.548 101.449l-74.378 5.723.027.349 74.378-5.723-.027-.349ZM219.752 104.492l-74.378 5.723.027.349 74.378-5.723-.027-.349ZM219.983 107.507l-74.378 5.723.027.349 74.378-5.723-.027-.349ZM221.239 110.134l-74.598 5.968.028.35 74.598-5.968-.028-.35ZM220.443 113.537l-74.378 5.723.027.349 74.378-5.723-.027-.349ZM221.744 116.175l-74.598 5.968.028.35 74.598-5.968-.028-.35ZM220.933 119.564l-74.378 5.723.027.349 74.378-5.723-.027-.349ZM222.218 122.218l-74.598 5.968.028.35 74.598-5.968-.028-.35Z"/>
    </g>
    <path fill="url(#i)" d="M178.087 91.05s-.861 1.837-3.73 1.837c-2.869 0-3.73-1.837-3.73-1.837v-4.016h7.46v4.016Z"/>
    <path fill="#CC8269" d="M174.386 74.639h-.029a5.968 5.968 0 0 0-5.967 5.968v3.532a5.968 5.968 0 0 0 5.967 5.968h.029a5.968 5.968 0 0 0 5.968-5.968v-3.532a5.968 5.968 0 0 0-5.968-5.968Z"/>
    <path fill="#271A38" d="m168.39 84.136.516-1.521.689-.545v-3.041s.373.602 1.521.459c1.032.344 1.893-.574 1.893-.574s.947.688 1.779.344c.775.402 1.521-.602 1.521-.602a.917.917 0 0 0 1.033.372.543.543 0 0 0 .746.373 1.55 1.55 0 0 0 1.434.66v2.324l.431.488.372 1.693.431-4.132-1.148-4.246-4.677-1.894h-2.123l-2.668 1.55-1.607 2.123-.574 2.066.431 4.103Z"/>
    <path fill="#F2E93F" d="M204.695 103.441H79.199a2.73 2.73 0 0 0-2.725 2.735v89.953a2.73 2.73 0 0 0 2.725 2.735h125.496a2.729 2.729 0 0 0 2.724-2.735v-89.953a2.73 2.73 0 0 0-2.724-2.735Z"/>
    <path fill="#8A76E8" d="M204.076 107.17H79.818v87.981h124.258V107.17Z"/>
    <path fill="url(#j)" d="M202.177 109.325H81.717v83.655h120.46v-83.655Z"/>
    <path fill="#F2E93F" d="M115.692 168.205s1.115 1.575-.826 2.279c-1.94.704-5.119.995-11.6 5.925a32.986 32.986 0 0 1 2.229-6.588c-2.889-.083-5.738 1.533-5.738 1.533s2.973-6.132 9.825-7.583c8.669-1.864 4.954 1.616 4.954 1.616l1.156 2.818Z"/>
    <path fill="#8A76E8" d="M108.013 167.086s.743 2.403 2.972 1.906c2.23-.497 4.294-1.616 4.954-.248-.702-1.368-1.816-4.517-1.816-4.517l-6.11 2.859Z"/>
    <path fill="#F2E93F" d="M168.201 168.205s-1.115 1.575.826 2.279c1.94.704 5.118.995 11.6 5.925a33.05 33.05 0 0 0-2.229-6.588c2.889-.083 5.738 1.533 5.738 1.533s-2.973-6.132-9.825-7.583c-8.67-1.864-4.954 1.616-4.954 1.616l-1.156 2.818Z"/>
    <path fill="#8A76E8" d="M175.879 167.086s-.743 2.403-2.972 1.906c-2.229-.497-4.293-1.616-4.954-.248.702-1.368 1.817-4.517 1.817-4.517l6.109 2.859Z"/>
    <path fill="#32327F" d="m111.397 168.869.291-.083-.291.083ZM172.496 168.869l-.29-.083.29.083Z"/>
    <path fill="#F2E93F" d="M177.285 159.338c-10.403-4.226-25.718-5.055-35.337-5.055-9.619 0-24.934.829-35.337 5.055a1.729 1.729 0 0 0-.947.941 1.75 1.75 0 0 0-.003 1.338l2.23 5.18.99 2.735 2.312-.622c-2.312.622-1.61-.953-1.073-1.202 8.875-3.48 22.994-4.309 31.828-4.309s22.953.829 31.828 4.309c.537.249 1.239 1.824-1.073 1.202l2.312.622.99-2.735 2.23-5.18a1.75 1.75 0 0 0-.95-2.279Z"/>
    <path fill="#8A76E8" d="M86.67 108.993a5.272 5.272 0 0 1-1.536 3.721 5.233 5.233 0 0 1-3.707 1.542v-5.263h5.243ZM202.465 114.256a5.231 5.231 0 0 1-3.707-1.542 5.268 5.268 0 0 1-1.536-3.721h5.243v5.263ZM197.222 193.316a5.257 5.257 0 0 1 3.237-4.862 5.212 5.212 0 0 1 2.006-.401v5.263h-5.243ZM81.427 188.053c1.39 0 2.724.555 3.707 1.542a5.27 5.27 0 0 1 1.536 3.721h-5.243v-5.263ZM141.947 123.62l1.445 1.45 1.651-1.243 1.239 1.616 1.775-1.036 1.032 1.741 1.899-.788.825 1.865 1.982-.539.578 1.948 2.023-.29.33 2.03 2.023-.083.082 2.072 2.023.207-.165 2.031 1.981.455-.412 2.031 1.899.704-.661 1.906 1.816.953-.949 1.823 1.693 1.161-1.115 1.74 1.527 1.326-1.362 1.575 1.362 1.533-1.527 1.367 1.115 1.699-1.693 1.16.949 1.865-1.816.911.661 1.948-1.899.704.412 2.031-1.981.455.165 2.031-2.023.207-.082 2.03-2.023-.041-.33 2.03-2.023-.29-.578 1.948-1.982-.539-.825 1.865-1.899-.829-1.032 1.782-1.775-1.036-1.239 1.616-1.651-1.243-1.445 1.45-1.445-1.45-1.651 1.243-1.239-1.616-1.775 1.036-1.032-1.782-1.899.829-.825-1.865-1.94.539-.62-1.948-2.022.29-.331-2.03-2.023.041-.082-2.03-2.023-.207.165-2.031-1.981-.455.413-2.031-1.899-.704.66-1.948-1.816-.911.949-1.865-1.692-1.16 1.114-1.699-1.527-1.367 1.362-1.533-1.362-1.575 1.527-1.326-1.114-1.74 1.692-1.161-.949-1.823 1.816-.953-.66-1.906 1.899-.704-.413-2.031 1.981-.455-.165-2.031 2.023-.207.082-2.072 2.023.083.331-2.03 2.022.29.62-1.948 1.94.539.825-1.865 1.899.788 1.032-1.741 1.775 1.036 1.239-1.616 1.651 1.243 1.445-1.45Z"/>
    <path fill="#fff" d="M151.698 147.927a10.664 10.664 0 0 0-.91-4.35 10.895 10.895 0 0 0-2.616-3.633 11.7 11.7 0 0 0-6.903-3.025 11.788 11.788 0 0 0-7.343 1.786c-.423.276-.423.276-.141.689.282.413 2.116 2.339 3.244 3.578.061.123.168.22.298.271.13.051.276.052.407.004a5.613 5.613 0 0 1 5.408.077 5.442 5.442 0 0 1 1.977 1.929 5.26 5.26 0 0 1 .078 5.277 5.412 5.412 0 0 1-1.918 1.984 5.62 5.62 0 0 1-5.404.23c-.423-.138-.564-.138-.705.138l-3.244 3.853c-.282.276-.282.413.141.551a11.215 11.215 0 0 0 7.617 1.789 11.652 11.652 0 0 0 7.146-3.745 11.132 11.132 0 0 0 2.868-7.403Z"/>
    <path fill="#8A76E8" d="M151.483 180.761h-19.072a.408.408 0 0 0-.413.402c0 .222.185.402.413.402h19.072c.228 0 .413-.18.413-.402a.408.408 0 0 0-.413-.402ZM108.26 128.882H90.467a.408.408 0 0 0-.412.402c0 .222.184.402.412.402h17.793c.228 0 .413-.18.413-.402a.408.408 0 0 0-.413-.402ZM104.214 132.737H90.468a.408.408 0 0 0-.413.402c0 .222.184.402.412.402h13.747c.228 0 .413-.18.413-.402a.408.408 0 0 0-.413-.402ZM109.54 136.549H90.467a.408.408 0 0 0-.412.402c0 .222.184.402.412.402h19.073c.228 0 .412-.18.412-.402a.407.407 0 0 0-.412-.402ZM99.508 140.361h-9.04a.408.408 0 0 0-.413.402c0 .222.184.402.412.402h9.041c.228 0 .413-.18.413-.402a.408.408 0 0 0-.413-.402ZM102.852 144.214H90.467a.408.408 0 0 0-.412.402c0 .222.184.402.412.402h12.385c.228 0 .413-.18.413-.402a.408.408 0 0 0-.413-.402ZM175.593 129.711h17.793c.228 0 .412-.18.412-.402a.407.407 0 0 0-.412-.401h-17.793a.407.407 0 0 0-.413.401c0 .222.185.402.413.402ZM179.679 133.523h13.747c.228 0 .413-.18.413-.401a.408.408 0 0 0-.413-.402h-13.747a.408.408 0 0 0-.413.402c0 .221.185.401.413.401ZM174.354 137.377h19.072c.228 0 .413-.18.413-.402a.408.408 0 0 0-.413-.402h-19.072a.408.408 0 0 0-.413.402c0 .222.185.402.413.402ZM184.345 141.189h9.041c.228 0 .412-.18.412-.402a.407.407 0 0 0-.412-.402h-9.041a.408.408 0 0 0-.413.402c0 .222.185.402.413.402ZM181.042 145.001h12.384c.228 0 .413-.18.413-.402a.408.408 0 0 0-.413-.402h-12.384a.408.408 0 0 0-.413.402c0 .222.185.402.413.402Z"/>
    <path fill="#AD6247" d="M85.816 101.924h-.028a.717.717 0 0 0-.718.718v1.581c0 .396.322.717.718.717h.028a.717.717 0 0 0 .718-.717v-1.581a.717.717 0 0 0-.718-.718Z"/>
    <path fill="#AD6247" d="M87.28 101.322h-.029a.717.717 0 0 0-.717.717v2.447c0 .397.32.718.717.718h.029a.717.717 0 0 0 .717-.718v-2.447a.717.717 0 0 0-.717-.717Z"/>
    <path fill="#AD6247" d="M88.743 102.039h-.029a.717.717 0 0 0-.717.717v1.642c0 .396.321.717.717.717h.029a.717.717 0 0 0 .717-.717v-1.642a.717.717 0 0 0-.717-.717Z"/>
    <path fill="#AD6247" d="M90.206 102.527h-.028a.717.717 0 0 0-.718.717v1.248c0 .396.322.718.718.718h.028a.718.718 0 0 0 .718-.718v-1.248a.717.717 0 0 0-.718-.717ZM85.07 103.273s-1.29-1.263-2.008.459h2.008v-.459Z"/>
    <path fill="#CC8269" d="M153.184 105.138h.029a.89.89 0 0 0 .889-.89v-1.925a.889.889 0 0 0-.889-.889h-.029a.89.89 0 0 0-.89.889v1.925c0 .491.399.89.89.89ZM151.376 105.453h.029a.889.889 0 0 0 .889-.889v-2.99a.889.889 0 0 0-.889-.889h-.029a.889.889 0 0 0-.889.889v2.99c0 .491.398.889.889.889Z"/>
    <path fill="#CC8269" d="M149.597 105.31h.029a.89.89 0 0 0 .89-.89v-1.999a.89.89 0 0 0-.89-.89h-.029a.89.89 0 0 0-.889.89v1.999c0 .492.398.89.889.89Z"/>
    <path fill="#CC8269" d="M147.79 105.453h.029a.889.889 0 0 0 .889-.889v-1.515a.889.889 0 0 0-.889-.889h-.029a.89.89 0 0 0-.89.889v1.515a.89.89 0 0 0 .89.889ZM154.102 103.072s1.578-1.549 2.468.574h-2.468v-.574Z"/>
    <path fill="#271A38" d="M230.938 148.146h-11.047c-.634 0-1.147.51-1.147 1.14 0 .629.513 1.139 1.147 1.139h11.047c.633 0 1.147-.51 1.147-1.139 0-.63-.514-1.14-1.147-1.14Z"/>
    <path fill="url(#k)" d="M193.955 138.621c.631.803 1.319 1.435 1.979.516l.603-.946a.869.869 0 0 1 .539-.472.87.87 0 0 1 .709.1.856.856 0 0 1 .362.968.867.867 0 0 1-.176.322l-.803 1.291c-.947 1.463-.143 4.533-.143 4.533l-5.509 1.148s-1.578-2.468-2.468-3.472c-.889-1.004-.66-1.607-.66-1.607s5.394-2.611 5.567-2.381Z"/>
    <path fill="#EDB3B2" d="m191.733 138.217 1.375 1.538a.758.758 0 1 0 1.131-1.01l-1.375-1.538a.758.758 0 1 0-1.131 1.01ZM190.139 138.799l1.779 1.99a.749.749 0 1 0 1.118-.999l-1.779-1.99a.75.75 0 0 0-1.118.999Z"/>
    <path fill="#EDB3B2" d="m189.238 139.999 1.52 1.699a.749.749 0 1 0 1.117-1l-1.519-1.699a.75.75 0 0 0-1.118 1ZM188.286 141.186l1.359 1.521a.75.75 0 0 0 1.118-1l-1.36-1.52a.749.749 0 1 0-1.117.999Z"/>
    <path fill="#FF7B6D" d="m197.397 144.13 3.3 14.059a3.42 3.42 0 0 1-.426 2.581 3.425 3.425 0 0 1-2.128 1.522 3.393 3.393 0 0 1-4.103-2.525l-3.299-14.088 6.656-1.549Z"/>
    <path fill="url(#l)" d="M213.651 148.991a3.981 3.981 0 0 0 .01-5.63 3.98 3.98 0 0 0-5.63.01l-12.796 12.795a3.981 3.981 0 0 0-.01 5.63 3.98 3.98 0 0 0 5.63-.01l12.796-12.795Z"/>
    <path fill="#6E61CE" d="M212.03 175.748c6.226 0 9.353-2.841 9.353-6.771 0-3.931-2.525-6.886-10.271-6.226-7.747.66-25.823 1.922-25.823 1.922s-4.275 0-6.57 5.164c-1.75 3.96-7.862 18.994-7.862 18.994l8.149 4.763 8.693-16.268a3.276 3.276 0 0 1 2.898-1.664l21.433.086Z"/>
    <path fill="#DD9E9E" d="m174.042 187.425-3.558 6.944 5.911 3.213 3.988-7.89-6.341-2.267Z"/>
    <path fill="#6E61CE" d="M171.432 192.503s-2.353.086-3.96-.373c-1.607-.459-4.16-1.033-4.935.287.058.058-1.061.517 1.09 1.722l11.821 6.599s1.779-2.209 1.779-4.82c-.401.229-2.84.373-4.045-.832s-1.75-2.583-1.75-2.583Z"/>
    <path fill="#F2E93F" d="M207.612 146.224s2.582-1.434 1.721-5.48c-.86-4.045-1.951-8.722.976-12.653 2.926-3.931 6.341-2.381 6.341-2.381s6.312-1.263 8.177 4.705c1.865 5.968-1.349 8.694.602 12.337 2.554 4.763 1.349 8.206-.717 8.149-2.066-.058-17.1-4.677-17.1-4.677Z"/>
    <path fill="#EDB3B2" d="m175.936 188.429-3.558 6.944 5.911 3.213 4.017-7.89-6.37-2.267Z"/>
    <path fill="#8A76E8" d="M213.952 176.752c6.226 0 9.325-2.84 9.325-6.771s-2.496-6.857-10.243-6.226c-7.746.631-25.851 1.922-25.851 1.922s-4.246 0-6.541 5.165c-1.751 3.959-7.891 18.993-7.891 18.993l8.149 4.763 10.185-16.268a3.326 3.326 0 0 1 2.869-1.664l19.998.086ZM173.354 193.508s-2.353.086-3.988-.345c-1.635-.43-4.16-1.061-4.906.287.028.029-1.062.517 1.061 1.722l11.821 6.57s1.808-2.18 1.779-4.791c-.373.201-2.812.373-4.045-.861-1.234-1.234-1.722-2.582-1.722-2.582Z"/>
    <path fill="url(#m)" d="M214.154 140.773c-2.611 0-5.796 1.176-8.751 5.71-2.956 4.533-5.538 7.66-2.525 10.902-.689 2.583-1.349 7.259-1.349 7.259s6.198-.115 8.981 3.615c2.783 3.73 8.406 5.94 10.874 5.825 2.467-.115 4.447-16.154 3.902-21.892-.631-6.398-1.923-11.419-11.132-11.419Z"/>
    <path fill="url(#n)" d="M212.833 146.597c1.406.516 5.911-4.648 5.251-5.537v-2.267h-5.222v2.181c-.717.602-1.176 5.193-.029 5.623Z"/>
    <path fill="#EDB3B2" d="M215.817 140.543a5.71 5.71 0 1 0 0-11.42 5.71 5.71 0 0 0 0 11.42Z"/>
    <path fill="#F2E93F" d="M209.534 134.317s3.386.316 4.878-3.558c-.115 2.296 3.758 5.767 7.746 5.452 1.406-.947.258-5.882-1.119-7.087s-7.029-2.152-8.033-1.119c-1.005 1.033-3.902 2.468-3.472 6.312Z"/>
    <path fill="#271A38" d="M216.334 137.903c-.174 0-.347-.019-.517-.057a.143.143 0 0 1 .086-.258c.058 0 1.148.344 1.492-.775a.172.172 0 0 1 .201-.086c.057.029.115.115.086.172a1.316 1.316 0 0 1-1.348 1.004ZM216.104 160.513a.898.898 0 0 0-.351.07.896.896 0 0 0-.298.199.902.902 0 0 0-.269.649v14.403h-23.039a.918.918 0 0 0-.775.402l-4.677 8.951c-1.607.115-2.84 1.062-3.644 2.869-.803 1.808-5.48 10.014-6.943 12.653l-11.161-6.283a.914.914 0 0 0-1.112-.03.93.93 0 0 0-.264.294.93.93 0 0 0-.061.77.908.908 0 0 0 .548.544l11.935 6.743a.923.923 0 0 0 1.234-.345c.287-.459 6.542-11.505 7.488-13.6.488-1.061 1.033-1.491 1.55-1.692v14.833a.917.917 0 1 0 1.836 0v-14.948h28.003a.892.892 0 0 0 .889-.918v-24.646a.885.885 0 0 0-.542-.848.9.9 0 0 0-.347-.07Zm-27.2 24.646 3.73-7.517h22.552v7.517h-26.282Z"/>
    <path fill="#271A38" d="M225.974 158.619h-17.445c-.903 0-1.635.732-1.635 1.636v.479c0 .903.732 1.635 1.635 1.635h17.445c.903 0 1.635-.732 1.635-1.635v-.479c0-.904-.732-1.636-1.635-1.636Z"/>
    <path fill="#271A38" d="M214.841 177.641h1.865c2.152 0 7.173-1.75 7.173-7.23v-10.099h-1.922v10.357c0 1.722-1.75 5.136-5.681 5.136h-1.435v1.836ZM187.183 196.09a5.878 5.878 0 0 0-5.798 7.022 5.879 5.879 0 0 0 8.034 4.288 5.88 5.88 0 0 0 3.617-5.457 5.853 5.853 0 0 0-5.853-5.853Zm0 9.784a3.932 3.932 0 1 1 3.902-3.931 3.905 3.905 0 0 1-1.132 2.778 3.907 3.907 0 0 1-2.77 1.153Z"/>
    <path fill="#271A38" d="M187.183 203.435a1.492 1.492 0 1 0 0-2.984 1.492 1.492 0 0 0 0 2.984ZM216.104 164.357a21.75 21.75 0 0 0-21.36 25.984 21.748 21.748 0 0 0 43.08-4.265 21.719 21.719 0 0 0-21.72-21.719Zm0 40.857a19.134 19.134 0 0 1-17.7-11.794 19.137 19.137 0 1 1 36.809-7.344 19.119 19.119 0 0 1-5.587 13.531 19.103 19.103 0 0 1-13.522 5.607Z"/>
    <path fill="#271A38" d="M216.104 188.716a2.64 2.64 0 1 0 0-5.28 2.64 2.64 0 0 0 0 5.28Z"/>
    <path fill="#FF7B6D" d="m218.258 143.255-.077.037a3.93 3.93 0 0 0-1.856 5.24l8.15 17.087a3.93 3.93 0 0 0 5.24 1.855l.078-.037a3.93 3.93 0 0 0 1.855-5.24l-8.15-17.086a3.93 3.93 0 0 0-5.24-1.856Z"/>
    <path fill="#EDB3B2" d="M210.596 164.356s-2.382-1.233-3.271-.315c-.89.918.918 1.721.918 1.721l2.353-1.406Z"/>
    <path fill="#EDB3B2" d="M207.726 169.148a1.237 1.237 0 0 0 1.234-.229c.574-.517 2.783-1.55 4.849-1.751l3.873-.459-.631-5.164-4.734.574c-2.066.229-3.701 1.377-4.964 3.73-.975 1.893-.229 3.012.373 3.299Z"/>
    <path fill="#FF7B6D" d="M213.837 160.943h14.432a3.411 3.411 0 0 1 3.181 4.727 3.423 3.423 0 0 1-1.865 1.849c-.418.17-.865.256-1.316.252h-14.432v-6.828Z"/>
  </g>
  <defs>
    <radialGradient id="b" cx="0" cy="0" r="1" gradientTransform="matrix(24.0234 0 0 43.0018 84.674 159.425)" gradientUnits="userSpaceOnUse">
      <stop stop-color="#8A76E8"/>
      <stop offset="1" stop-color="#271A38"/>
    </radialGradient>
    <radialGradient id="d" cx="0" cy="0" r="1" gradientTransform="translate(59.282 97.483) scale(4.77426)" gradientUnits="userSpaceOnUse">
      <stop stop-color="#271A38"/>
      <stop offset=".95" stop-color="#AD6247"/>
    </radialGradient>
    <radialGradient id="e" cx="0" cy="0" r="1" gradientTransform="translate(61.597 77.23) scale(8.38652)" gradientUnits="userSpaceOnUse">
      <stop stop-color="#8A76E8"/>
      <stop offset="1" stop-color="#271A38"/>
    </radialGradient>
    <radialGradient id="f" cx="0" cy="0" r="1" gradientTransform="translate(121.752 83.966) scale(3.54913)" gradientUnits="userSpaceOnUse">
      <stop stop-color="#FF7B6D"/>
      <stop offset="1" stop-color="#EDB3B2"/>
    </radialGradient>
    <radialGradient id="g" cx="0" cy="0" r="1" gradientTransform="matrix(5.64649 0 0 5.64648 207.418 64.717)" gradientUnits="userSpaceOnUse">
      <stop stop-color="#AD6247"/>
      <stop offset="1" stop-color="#CC8269"/>
    </radialGradient>
    <radialGradient id="i" cx="0" cy="0" r="1" gradientTransform="translate(176.853 86.953) scale(5.43129)" gradientUnits="userSpaceOnUse">
      <stop stop-color="#AD6247"/>
      <stop offset="1" stop-color="#CC8269"/>
    </radialGradient>
    <radialGradient id="k" cx="0" cy="0" r="1" gradientTransform="matrix(4.05124 0 0 6.64402 191.08 136.805)" gradientUnits="userSpaceOnUse">
      <stop stop-color="#FF7B6D"/>
      <stop offset="1" stop-color="#EDB3B2"/>
    </radialGradient>
    <radialGradient id="l" cx="0" cy="0" r="1" gradientTransform="translate(209.066 156.041) scale(10.3806)" gradientUnits="userSpaceOnUse">
      <stop stop-color="#D4145A"/>
      <stop offset="1" stop-color="#FF7B6D"/>
    </radialGradient>
    <radialGradient id="m" cx="0" cy="0" r="1" gradientTransform="translate(226.118 159.597) scale(10.6216)" gradientUnits="userSpaceOnUse">
      <stop stop-color="#D4145A"/>
      <stop offset="1" stop-color="#FF7B6D"/>
    </radialGradient>
    <radialGradient id="n" cx="0" cy="0" r="1" gradientTransform="translate(217.269 138.968) scale(3.49175)" gradientUnits="userSpaceOnUse">
      <stop stop-color="#FF7B6D"/>
      <stop offset="1" stop-color="#EDB3B2"/>
    </radialGradient>
    <linearGradient id="j" x1="78.724" x2="205.397" y1="114.521" y2="187.383" gradientUnits="userSpaceOnUse">
      <stop offset=".45" stop-color="#fff"/>
      <stop offset="1" stop-color="#ECE9FB"/>
    </linearGradient>
  </defs>
</svg>
